<svg xmlns="http://www.w3.org/2000/svg" version="1.1" viewBox="-5.0 -10.0 110.0 135.0">
 <path d="m50 7.4453c-11.285 0-22.109 4.4844-30.09 12.465-7.9805 7.9805-12.465 18.805-12.465 30.09s4.4844 22.109 12.465 30.09c7.9805 7.9805 18.805 12.465 30.09 12.465s22.109-4.4844 30.09-12.465c7.9844-7.9805 12.465-18.805 12.465-30.09-0.011719-11.281-4.5-22.098-12.477-30.078-7.9805-7.9766-18.797-12.465-30.078-12.477zm24.168 71.598v-4.4883c0.003906-4.0273-1-7.9961-2.9219-11.539h-0.007813l-0.27344-0.47656c-2.3477-4.0703-5.8242-7.375-10.008-9.5156-0.050781-0.023438-0.097656-0.054688-0.14453-0.078126-0.59375-0.29687-1.1992-0.57031-1.8164-0.82031l-1.6875-0.67969 1.5195-1.0039c2.4531-1.6133 4.418-3.8711 5.6797-6.5234 1.2617-2.6484 1.7695-5.5977 1.4766-8.5195-0.050781-0.51172-0.12891-1.0195-0.23047-1.5195-0.023437-0.11328-0.054687-0.22656-0.078125-0.33984-0.089843-0.40625-0.19141-0.80859-0.3125-1.2031-0.027343-0.085938-0.054687-0.16797-0.082031-0.25391-0.15234-0.45703-0.31641-0.91406-0.51172-1.3594l-0.011719-0.027344-0.003906-0.003906c-0.21484-0.5-0.46094-0.98828-0.72656-1.4648l-0.29688-0.52734v-0.003907c-2.5664-4.2383-6.9492-7.0547-11.875-7.625-0.62109-0.070312-1.25-0.10547-1.875-0.10547-3.9453-0.011719-7.7539 1.4453-10.684 4.0898-3.7188 3.3203-5.6836 8.1836-5.3164 13.156 0.37109 4.9727 3.0273 9.4922 7.1953 12.23l1.5195 1-1.6875 0.67969c-4.4883 1.7852-8.3359 4.8789-11.043 8.8789-2.707 4.0039-4.1484 8.7266-4.1328 13.555v4.4883c-8.0195-6.668-12.926-16.352-13.562-26.758-0.64062-10.406 3.0508-20.617 10.195-28.211 7.1445-7.5977 17.109-11.902 27.535-11.902s20.391 4.3047 27.535 11.902c7.1445 7.5938 10.836 17.805 10.199 28.211-0.64062 10.406-5.5469 20.09-13.566 26.758z"/>
<text x="0.0" y="117.5" font-size="5.0" font-weight="bold" font-family="Arbeit Regular, Helvetica, Arial-Unicode, Arial, Sans-serif" fill="#000000">Created by Leonardo Henrique Martini</text><text x="0.0" y="122.5" font-size="5.0" font-weight="bold" font-family="Arbeit Regular, Helvetica, Arial-Unicode, Arial, Sans-serif" fill="#000000">from Noun Project</text></svg>